<svg width="1191" height="712" xmlns="http://www.w3.org/2000/svg"><defs><linearGradient x1="50%" y1="111.374%" x2="38.175%" y2="0%" id="a"><stop stop-color="#00C87B" offset="0%"/><stop stop-color="#4EF89D" offset="100%"/></linearGradient><linearGradient x1=".004%" y1="49.48%" x2="100%" y2="49.48%" id="b"><stop stop-color="#E8E9F2" offset="0%"/><stop stop-color="#F9FAFD" offset="100%"/></linearGradient><linearGradient x1="7.195%" y1="168.895%" x2="122.276%" y2="-13.074%" id="c"><stop stop-color="#1870F2" offset="0%"/><stop stop-color="#95B9EE" offset="100%"/></linearGradient><linearGradient x1="50%" y1="17.166%" x2="50%" y2="145.027%" id="d"><stop stop-color="#FDCFB2" offset="0%"/><stop stop-color="#FAA17B" offset="100%"/></linearGradient><linearGradient x1="138.996%" y1="-17.687%" x2="30.778%" y2="100%" id="e"><stop stop-color="#FBE5D9" offset="0%"/><stop stop-color="#F6C7B1" offset="100%"/></linearGradient><linearGradient x1="79.694%" y1="142.11%" x2="-14.46%" y2="-31.842%" id="f"><stop stop-color="#1870F2" offset="0%"/><stop stop-color="#95B9EE" offset="100%"/></linearGradient></defs><g fill="none" fill-rule="evenodd"><path d="M60.428 21.12c-4.284-7.769-9.269-13.673-14.954-17.713C38.152-1.721 32.428-1.06 28.3 5.388c-8.412 13.207-9.58 32.63-3.505 58.267.156.544 3.816 12.508 10.982 35.893 4.128 13.518 5.14 21.559 3.037 24.122-2.18 2.642-4.945 2.487-8.295-.466-4.75-5.127-8.995-9.245-12.734-12.352-5.374-4.584-9.853-4.35-13.435.699-3.427 4.894-4.83 12.43-4.206 22.608.545 9.322 3.933 22.607 10.164 39.854 5.452 15.383 12.033 30.882 19.744 46.498 6.854 13.984 21.614 32.668 44.279 56.053 22.275 22.996 37.891 35.97 46.848 38.922 7.321 2.409 17.992-3.651 32.011-18.18 7.01-7.302 13.28-14.838 18.81-22.607-3.115-3.651-6.348-8.274-9.697-13.867-6.698-11.032-10.67-21.17-11.916-30.416-.624-4.506-1.636-16.625-3.038-36.359-1.09-14.45-2.415-23.695-3.972-27.735-2.882-7.303-6.309-13.518-10.281-18.645-5.219-6.682-9.386-8.08-12.501-4.196-3.66 5.283-6.075 8.663-7.243 10.139-1.792 2.175-3.661 2.913-5.608 2.214-2.181-.855-6.698-8.973-13.552-24.356-6.543-14.683-11.372-27.191-14.487-37.524-1.169-3.807-4.323-16.897-9.464-39.272-4.05-17.869-7.32-29.056-9.813-33.562z" fill="url(#a)" transform="translate(56 210)"/><path d="M124.8 319.4l-.115-.116v-.35l-13.611-38.815-8.26-15.27-.465-.583c0-.31-.116-.35-.349-.116v.233l8.376 27.858 6.05 28.675v.233l.115.233.698 4.08c1.009 6.45 2.366 14.065 4.072 22.846l8.492 39.864 7.096 24.944 12.68 32.405 1.978 4.08.233.349.116.35 3.49 6.527.116.117v.116l.117.117.116.35 10.586 16.668 11.75 14.454 7.561 7.576c1.318 1.321 3.141 2.992 5.468 5.012l13.96 10.258.581.466c.078.078.194.039.349-.116v-.234l-18.148-20.048-14.774-21.797-.232-.583-8.609-16.086-.116-.35-.117-.116v-.117l-2.675-5.944-.35-.583-1.628-4.08-.349-.583-12.098-34.735-22.103-86.956v-.233z" fill="#00B366"/><path d="M172.566 396.894l.343-4.66c.152-.156.114-.234-.115-.234l-.228.117-2.17 4.777-.114.466-.457 1.05-2.741 8.856-.114.815-1.714 7.924-1.256 11.77.228 16.431 1.6 11.653.228.816.685 3.496.229.815v.467l2.97 10.021 2.626 6.41.228.116.115-.233v-2.214l-.115-.7v-.815l-.228-1.981v-1.165l-1.256-16.664-.115-3.73-.114-.932L170.74 435l-.115-1.049.115-.932v-7.924l.114-.932.457-12.003.228-1.632v-1.631l.114-.816v-.815l.343-3.03v-1.399l.343-2.563v-1.166l.114-.582v-.583l.114-.466v-.583zM143.49 432.597v.117h.117l3.03 3.256.35.465.816.815 3.497 4.652.583.93.699.815 5.129 9.188 3.846 8.956c0 .232.078.271.233.116.233 0 .272-.078.117-.233l-.7-5.35-3.496-11.63-3.38-7.095-.234-.233-2.331-3.838-.466-.465-.7-1.164-.932-1.046-.35-.582-.466-.465-.816-1.047v-.116l-.233-.233-.35-.232-.466-.582-7.343-6.746-33.337-22.098-.932-.815-.583-.348-.466-.466-.933-.698-.466-.465-.583-.349-.116-.116v-.116l-.233-.233-.467-.349-.466-.465-.116-.233-.234-.116-3.963-4.303-.699-.93-.233-.233-.117-.233-.35-.349-.582-.93-.7-.815-.35-.698-.232-.232-2.565-4.07-.233-.466-.116-.35-.467-.813c-1.243-2.326-2.098-4.11-2.564-5.35l-2.098-5.002c0-.232-.078-.271-.233-.116-.233 0-.272.078-.117.233l.816 6.048.233.581.233 1.512.7 2.443.35.814.35 1.396.232.348.7 1.861 3.147 6.514.233.349.7 1.279 3.846 5.118.233.348.233.233.35.465.466.466.233.348c.076.076.115.076.117 0v.117h.116l.117.116.35.465.233.233.35.233.932 1.046 7.693 6.281 29.723 19.772 5.711 4.885z" fill="#00B366"/><path d="M1168.28 321.19c-15.44-36.482-37.873-66.883-67.297-91.204-31.912-26.29-70.258-43.846-115.038-52.667-48.983-9.591-103.928-8.264-164.835 3.982-57.733 11.647-107.488 33.099-149.265 64.356-31.998 23.893-60.35 54.594-85.056 92.103-8.32 12.76-17.285 27.832-26.893 45.217-5.233 9.505-12.267 22.394-21.103 38.665-14.155 24.92-26.85 38.066-38.088 39.436-11.581 1.37-31.612.214-60.093-3.469-35.686-5.138-63.223-8.863-82.61-11.175-74.633-8.906-125.932-5.438-153.898 10.405-17.414 10.02-31.14 23.85-41.176 41.49C152.976 515.887 148 534.727 148 554.85c-.086 21.238 5.404 41.278 16.47 60.118 12.182 20.638 30.068 38.065 53.659 52.281h828.55c23.849-13.445 47.74-33.313 71.674-59.603 47.782-52.581 71.716-110.943 71.802-175.085.085-39.822-7.206-76.945-21.875-111.372z" fill="url(#b)"/><path d="M225.467 529.392c-2.358-1.088-13.086-8.464-32.185-22.127-19.963-14.268-37.293-25.21-51.99-32.828-49.044-25.15-85.12-23.094-108.226 6.167-34.425 43.89-41.97 88.145-22.636 132.762 9.668 22.368 22.793 40.324 39.377 53.866h438.679c-26.33-27.447-54.31-54.773-83.94-81.979-59.26-54.531-96.987-81.434-113.177-80.709-12.968.605-25.858 6.348-38.669 17.23-5.502 4.595-9.667 7.436-12.497 8.525-4.558 1.813-9.47 1.511-14.736-.907z" fill="url(#b)"/><path d="M217.4 137.489c7.18-4.014 9.864-12.777 8.052-26.289-1.543-11.84-4.83-20.603-9.863-26.289-3.288-3.746-9.293-4.549-18.016-2.408l-11.977 4.415c.872-13.847 0-27.86-2.617-42.042-5.368-28.363-16.91-43.313-34.623-44.852-4.026-.334-6.911 2.81-8.656 9.432-1.275 4.816-2.18 13.111-2.718 24.884-.805 17.46-1.341 27.995-1.61 31.607-1.073 12.442-2.952 22.41-5.636 29.901-5.838 16.59-13.05 32.008-21.64 46.257-7.984 13.311-14.09 20.77-18.318 22.375-1.744.67-4.294-.735-7.649-4.214-.537-.535-3.724-4.214-9.561-11.037-8.254-9.7-13.487-11.573-15.702-5.62-.805 2.141-1.946 8.73-3.422 19.768-1.61 12.04-3.59 22.208-5.938 30.503C39.387 222.443 23.552 244.15 0 259c37.24-1.338 96.22-1.505 176.94-.502-5.502-3.077-10.367-7.726-14.594-13.947-8.387-12.375-9.26-26.456-2.617-42.243 11.944-28.43 31.167-50.036 57.672-64.819z" fill="url(#a)" transform="translate(861 408)"/><path d="M1015.868 455.08c-.2 0-.234.068-.1.202l1.907 17.717v20.738l-1.305 11.174v.503l-3.414 15.1v.101l-.1.202-8.232 21.24-.603 1.108-.2.604-.302.503-5.823 10.973-12.148 18.623a885.853 885.853 0 0 0-11.345 16.208 475.426 475.426 0 0 0-10.14 15.402l-4.919 8.356-6.225 13.288-3.112 9.462-1.004 4.732v.302l-.1.302-.603 4.53-.1 6.745.1.604c0 .134.067.201.201.201l.1-.1.201-.705.201-1.208v-.403l.1-.1.603-2.92 1.907-6.241.201-.302.603-1.812 7.429-14.799.502-.704.904-1.611.3-.403.202-.402 35.64-47.616.301-.302v-.1l2.008-2.92c2.544-3.893 4.384-6.846 5.522-8.859l.703-1.107 8.333-16.309.2-.604.302-.604c1.606-3.825 2.844-7.013 3.714-9.563l3.113-10.872.1-.705.904-4.127L1024 506.32v-15.603l-1.004-9.362v-.504l-.1-.402-.703-3.826v-.402l-.703-3.02-.1-.806-5.321-17.214c0-.201-.067-.235-.201-.1z" fill="#00B366"/><path d="M931.3 596.01l-.5-.202-1.5-.808-.3.101v.202l.7 1.515.1.304 5.1 11.719.2.606.3.505 1.1 3.03.3.607 2.7 7.678.1.101v.101l.1.404.3.707.2.708.1.202v.1l2.1 7.477v.202l.1.1v.405l2.4 13.033v.505l.1.505.3 2.829v.404l.1.404.5 4.344.2.202.1-.101.5-.606 2.2-4.041 1.3-3.334.1-.202v-.303l.3-1.112c.067-.202.267-1.044.6-2.525l.2-.606.5-4.143v-.707l.1-.707-.2-5.759-.1-.202v-.202l-.9-5.455-1-3.637-.1-.202-.1-.101-.2-.707-.3-.708-.1-.404-.1-.202v-.1l-.1-.102-.5-1.515-5.2-9.295-2.6-3.233-5.1-4.95-3.6-2.425-.5-.404zM1063.299 510.198c0-.132-.067-.198-.2-.198l-.1.1-.302 1.487-.1.298-1.703 6.151-2.405 5.457-2.104 3.274-.2.396-.3.397-.402.397-.3.496-1.303 1.588-.3.496-2.505 2.58h-.1v.098l-.802.794h-.1v.1l-.1.098-3.707 3.076c-.268.132-.602.397-1.002.794l-.601.297-39.677 25.994-.501.496-1.203.793-2.805 2.282-.3.199-.1.099v.099l-.201.1-6.813 6.349-6.914 8.135-1.202 1.687-5.31 9.127-1.604 3.968c-.066.199-.033.298.1.298h.201l10.62-10.616 11.924-9.425.5-.297.502-.397 3.206-2.183.2-.099v-.1h.1l4.209-2.678.6-.297 33.967-21.827 10.52-9.722.2-.298.3-.298.402-.496.1-.198h.1v-.1l.2-.297c.134-.066.268-.232.401-.496l.1-.1h.1v-.099l.301-.297.3-.595c.402-.463.903-1.191 1.504-2.183l.3-.595.401-.496 1.102-2.282.3-.496.201-.596c.601-1.124 1.136-2.546 1.603-4.266l.601-1.984.802-5.556-.3-6.746-.1-.298-.301-1.389z" fill="#00B366"/><g transform="translate(358)"><path d="M.5 26.5V429a9.5 9.5 0 0 0 9.5 9.5h603a9.5 9.5 0 0 0 9.5-9.5V26.5H.5zM.5 26.5V10A9.5 9.5 0 0 1 10 .5h603a9.5 9.5 0 0 1 9.5 9.5v16.5H.5z" stroke="#000" fill="#FFF"/><circle fill="#FF6058" cx="19" cy="14" r="5"/><circle fill="#FFBD2D" cx="35" cy="14" r="5"/><circle fill="#28C93F" cx="51" cy="14" r="5"/></g><path d="M814 487.2c0-2.8-1.411-4.2-4.233-4.2H691.233c-2.822 0-4.233 1.4-4.233 4.2v96.6c0 2.8 1.411 4.2 4.233 4.2h118.534c2.822 0 4.233-1.4 4.233-4.2v-96.6z" fill="#E2A97A"/><path d="M778 487.2c0-2.8-1.411-4.2-4.233-4.2H655.233c-2.822 0-4.233 1.4-4.233 4.2v96.6c0 2.8 1.411 4.2 4.233 4.2h118.534c2.822 0 4.233-1.4 4.233-4.2v-96.6z" fill="#D49866"/><path d="M798 592.2c0-2.8-1.411-4.2-4.233-4.2H675.233c-2.822 0-4.233 1.4-4.233 4.2v96.6c0 2.8 1.411 4.2 4.233 4.2h118.534c2.822 0 4.233-1.4 4.233-4.2v-96.6z" fill="#C59065"/><path d="M763 592.2c0-2.8-1.411-4.2-4.233-4.2H640.233c-2.822 0-4.233 1.4-4.233 4.2v96.6c0 2.8 1.411 4.2 4.233 4.2h118.534c2.822 0 4.233-1.4 4.233-4.2v-96.6z" fill="#B47D51"/><path fill-opacity=".2" fill="#FFF" d="M750 678v-22h-44v22z"/><path d="M945 591.2c0-2.8-1.411-4.2-4.233-4.2H822.233c-2.822 0-4.233 1.4-4.233 4.2v96.6c0 2.8 1.411 4.2 4.233 4.2h118.534c2.822 0 4.233-1.4 4.233-4.2v-96.6z" fill="#DC965C"/><path d="M910 591.2c0-2.8-1.411-4.2-4.233-4.2H787.233c-2.822 0-4.233 1.4-4.233 4.2v96.6c0 2.8 1.411 4.2 4.233 4.2h118.534c2.822 0 4.233-1.4 4.233-4.2v-96.6z" fill="#CA8C58"/><path fill-opacity=".2" fill="#FFF" d="M896.04 675.418l.123-22.224-44.485-.245-.122 22.224z"/><path d="M573 587.56c0-2.373-1.189-3.56-3.567-3.56h-99.866c-2.378 0-3.567 1.187-3.567 3.56v81.88c0 2.373 1.189 3.56 3.567 3.56h99.866c2.378 0 3.567-1.187 3.567-3.56v-81.88z" fill="#DCA97E"/><path d="M543 587.56c0-2.373-1.189-3.56-3.567-3.56h-99.866c-2.378 0-3.567 1.187-3.567 3.56v81.88c0 2.373 1.189 3.56 3.567 3.56h99.866c2.378 0 3.567-1.187 3.567-3.56v-81.88z" fill="#CE986B"/><path fill-opacity=".2" fill="#FFF" d="M486 659v-19h-37v19z"/><path d="M646 603.56c0-2.373-1.189-3.56-3.567-3.56h-99.866c-2.378 0-3.567 1.187-3.567 3.56v81.88c0 2.373 1.189 3.56 3.567 3.56h99.866c2.378 0 3.567-1.187 3.567-3.56v-81.88z" fill="#C59065"/><path d="M616 603.56c0-2.373-1.189-3.56-3.567-3.56h-99.866c-2.378 0-3.567 1.187-3.567 3.56v81.88c0 2.373 1.189 3.56 3.567 3.56h99.866c2.378 0 3.567-1.187 3.567-3.56v-81.88z" fill="#B47D51"/><path d="M560.702 675.665l.004-18.718-37.467-.007-.004 18.718z" fill="#FFF" fill-opacity=".2"/><path d="M654 515.56c0-2.373-1.189-3.56-3.567-3.56h-99.866c-2.378 0-3.567 1.187-3.567 3.56v81.88c0 2.373 1.189 3.56 3.567 3.56h99.866c2.378 0 3.567-1.187 3.567-3.56v-81.88z" fill="#DC965C"/><path d="M624 515.56c0-2.373-1.189-3.56-3.567-3.56h-99.866c-2.378 0-3.567 1.187-3.567 3.56v81.88c0 2.373 1.189 3.56 3.567 3.56h99.866c2.378 0 3.567-1.187 3.567-3.56v-81.88z" fill="#CA8C58"/><path fill-opacity=".2" fill="#FFF" d="M608.466 587.923l.103-18.718-37.466-.205-.103 18.717zM762.548 575.814l.103-18.718-37.466-.205-.103 18.717z"/><circle stroke="#ECEDF4" fill="#ECEDF4" cx="725.5" cy="311.5" r="50.5"/><rect fill="#ECEDF4" x="800" y="295" width="133" height="17" rx="6.5"/><rect fill="#ECEDF4" x="800" y="261" width="133" height="17" rx="6.5"/><rect fill="#ECEDF4" x="800" y="329" width="94" height="17" rx="6.5"/><rect fill="#FFCB5F" x="398" y="126" width="23" height="65" rx="11.5"/><rect fill="#ECEDF4" x="443" y="101" width="23" height="90" rx="11.5"/><rect fill="#FFCB5F" x="514" y="115" width="23" height="76" rx="11.5"/><rect fill="#ECEDF4" x="559" y="132" width="23" height="59" rx="11.5"/><rect fill="#FFCB5F" x="630" y="89" width="23" height="102" rx="11.5"/><rect fill="#ECEDF4" x="675" y="115" width="23" height="76" rx="11.5"/><rect fill="#FFCB5F" x="746" y="89" width="23" height="102" rx="11.5"/><rect fill="#ECEDF4" x="791" y="73" width="23" height="118" rx="11.5"/><rect fill="#ECEDF4" x="907" y="56" width="23" height="135" rx="11.5"/><rect fill="#FFCB5F" x="862" y="73" width="23" height="118" rx="11.5"/><g><path d="M202.35 349.309c-8.128-29.675-12.476-47.399-13.044-53.17-.342-2.723-2.498-4.868-6.466-6.434-3.837-1.457-8.081-2.024-12.733-1.702-4.986.402-8.8 1.77-11.443 4.104-3.123 2.694-4.04 6.322-2.752 10.884 2.23 8.254 10.56 26.483 24.993 54.687l21.016 39.732 12.46-5.402-12.03-42.7z" fill="#FCB796"/><path d="M194.926 224.861l-19.994 30.172c-13.268 21.763-19.498 36.901-18.69 45.415.444 4.828 2.338 8.256 5.68 10.286 3.214 2.025 6.067 3.592 8.558 4.702 2.617 1.115 5.685.412 9.205-2.11 2.088-1.563 17.03-27.249 44.824-77.055l-29.583-11.41z" fill="#FCB796"/><path d="M39.376 160.898c-5.698 12.017-12.408 27.324-20.131 45.92-1.646 5.186 4.431 9.614 18.231 13.282 13.8 3.542 22.22 2.846 25.258-2.088 5.444-8.602 11.585-23.086 18.422-43.453 3.418-9.487 5.127-19.86 5.127-31.119.127-12.903-2.468-20.683-7.786-23.34-5.064-2.656-12.027 1.203-20.89 11.576-7.09 8.349-13.167 18.09-18.231 29.222z" fill="url(#c)" transform="rotate(2.238 -1745.182 3842.536)"/><path fill="#FDD5CD" d="M288.86 679.261l-.23 19.07 22.314-2.24-.504-18.963z"/><path d="M162.476 620.593c-2.816-.402-6.12-1.263-9.913-2.584l-4.741-1.894c-.23-.173-.546-.259-.948-.259-.862.058-1.724.488-2.586 1.292-1.322 1.263-2.098 4.25-2.328 8.958-.23 5.053.747 8.067 2.93 9.044 4.886 2.181 12.357 2.612 22.414 1.291 8.965-1.148 14.711-2.64 17.24-4.478 1.092-.804 1.753-1.78 1.983-2.929.287-1.378-.144-2.641-1.293-3.79-1.207-1.205-4.11-2.698-8.707-4.478l-6.551-2.24-1.38 1.378c-1.494.862-3.534 1.091-6.12.69z" fill="url(#c)" transform="rotate(-8.249 741.445 -321.591)"/><path fill="#FDD5CD" d="M232.06 672.049l-1.408 19.02 22.41-.857.669-18.96z"/><path d="M104.122 614.769c-2.529-.115-5.776-.775-9.741-1.981l-5.086-1.723c-.23-.172-.546-.258-.948-.258-.862.057-1.724.488-2.586 1.292-1.322 1.32-2.127 4.45-2.414 9.388-.287 5.34.718 8.298 3.017 8.872 5.345 1.378 11.954 1.32 19.827-.172 7.413-1.436 13.132-3.532 17.154-6.288.977-.69 1.437-1.751 1.38-3.187-.115-1.55-.805-2.842-2.07-3.876-1.608-1.263-3.907-2.498-6.895-3.704l-3.966-1.378-1.465 1.637c-1.552 1.09-3.62 1.55-6.207 1.378z" fill="url(#c)" transform="rotate(-4.705 1063.524 -1070.754)"/><path d="M299.378 375.192c-10.96-4.025-21.64-5.71-32.037-5.054-20.796 1.31-29.788 13.666-26.978 37.067 1.967 16.474 9.04 40.998 21.217 73.573 11.428 30.515 17.423 53.026 17.986 67.535 2.81 77.504 4.73 121.217 5.76 131.14.656 6.364 4.731 9.547 12.225 9.547 7.306 0 11.428-2.387 12.365-7.16 8.993-65.617 13.957-112.42 14.894-140.407.562-19.002-3.513-52.418-12.224-100.25l-13.208-65.99z" fill="#2C3E50"/><path d="M200.121 391.089c-1.624 11.334-1.678 22.993-.162 34.977 1.028 7.917 3.33 18.898 6.902 32.943 4.115 16.432 6.876 28.606 8.283 36.523 2.761 15.184 4.25 30.368 4.467 45.551.162 18.655 1.813 46.474 4.953 83.457 1.57 18.492 3.113 35.113 4.63 49.863-.272 1.952.73 3.552 3.004 4.8 2.111 1.084 4.737 1.68 7.877 1.789 7.85.162 12.262-2.034 13.236-6.59 5.143-59.433 8.825-102.598 11.044-129.495 1.516-16.811 4.06-49.836 7.634-99.075l4.872-68.897-11.612-.65c-9.258-.38-17.812-.38-25.662 0-25.065 1.301-38.22 6.236-39.466 14.804z" fill="#2C3E50"/><path d="M270.861 496c-2.222-3.985-5.333-8.543-9.333-13.674-5.667-7.369-8.89-11.6-9.667-12.691-7.333-10.426-11.667-21.971-13-34.635" stroke="#4C6A87" stroke-linecap="round" stroke-linejoin="round"/><path d="M66.528 127.528c-3.04 5.86-4.914 19.344-5.62 40.45-.055.923-.218 18.693-.49 53.311-.162 20.62-1.004 53.148-2.525 97.587-.054 6.023 8.255 10.96 24.926 14.813 14.717 3.256 30.112 4.748 46.187 4.476 26.175-.488 38.312-8.681 36.412-24.58-1.086-8.844-1.765-18.72-2.037-29.626-.38-16.44-.081-40.26.897-71.46.108-4.45 1.113-15.193 3.014-32.23 1.466-13.132 1.765-22.573.896-28.325-1.195-8.193-5.268-15.79-12.219-22.789-9.177-9.115-21.505-14.65-36.982-16.603-14.282-1.736-26.636-.543-37.063 3.581-7.929 3.147-13.06 6.945-15.396 11.395z" fill="url(#c)" transform="rotate(.754 -5361.59 11049.352)"/><path d="M341.128 251.794l-23.653-20.534-17.937 26.114 25.252 24.26c18.537 16.474 32.044 25.345 40.52 26.613 4.758.68 8.622-.425 11.591-3.313 2.593-2.573 4.125-6.102 4.596-10.587.501-4.244-.03-8.225-1.592-11.944-1.713-3.944-4.188-6.436-7.424-7.476-4.366-1.462-14.817-9.173-31.353-23.133z" fill="#FCB796"/><path d="M397.473 243.925c-21.732 22.273-35.036 35.048-39.911 38.325-2.175 1.508-3.07 4.278-2.684 8.31.398 3.79 1.777 7.452 4.136 10.986 2.513 3.81 5.373 6.193 8.58 7.15 3.758 1.084 7.358-.016 10.798-3.301 6.188-5.903 18.224-21.933 36.11-48.09l24.869-37.447-10.702-8.362-31.196 32.43z" fill="#FCB796"/><path d="M132.694 141.457c-7.763 14.38-9.662 25.747-5.697 34.105 6.138 12.861 12.574 26.917 19.31 42.166.488 2.55 2.85 3.88 7.086 3.99 3.91.162 8.524-.65 13.846-2.44 5.375-1.79 9.936-4.015 13.682-6.674 4.126-2.93 6.298-5.75 6.515-8.464.759-9.496-.356-24.636-3.346-45.42-1.576-11.016-5.215-22.33-10.918-33.944-6.68-13.512-12.546-17.936-17.595-13.27-9.012 8.356-16.64 18.34-22.883 29.951z" fill="url(#c)" transform="rotate(-36.102 339.323 -15.633)"/><path d="M119.067 119.534c4.181-2.062 4.996-4.422 2.444-7.081-1.412-3.798-2.281-11.043-2.607-21.733l-.081-14.977-26.558 3.42c-.543.054-.95 4.503-1.222 13.348-.326 9.876.082 18.477 1.222 25.803l3.014 2.604c2.716 1.574 5.54 2.28 8.472 2.117 6.517-.38 11.623-1.547 15.316-3.5z" fill="url(#d)" transform="rotate(2.236 -1692.083 3773.495)"/><path d="M128.885 23.584c-4.586-5.138-11.293-7.707-20.12-7.708-10.053 0-18.268 2.487-24.643 7.463-7.846 6.106-11.768 15.333-11.768 27.68.002 16.894 5.017 30.533 15.047 40.918 4.266 4.439 9.122 7.855 14.565 10.25 5.174 2.287 10.348 3.43 15.522 3.43 6.792.001 11.696-2.016 14.712-6.051 3.923-5.326 5.884-15.09 5.883-29.295l-.037-3.752c1.004-20.687-2.05-34.998-9.161-42.935z" fill="url(#e)" transform="rotate(-14.439 464.43 -463.238)"/><path d="M233.87 89.183c-11.63 3.381-19.471 9.207-23.523 17.476-3.78 7.675-4.073 16.917-.876 27.728 2.57 8.596 7.254 16.668 14.053 24.218 3.4 3.775 6.72 6.902 9.96 9.382.7 1.174 1.83-.694 3.394-5.603 1.254-4 2.57-9.333 3.946-16 2.687-12.947 6.932-21.183 12.734-24.709 4.875-2.935 8.683-4.863 11.424-5.783 4.572-1.613 8.04-1.431 10.403.547-3.802-12.976-8.717-21.57-14.747-25.78-6.387-4.348-15.31-4.84-26.769-1.476z" fill="#2C3E50"/><path d="M246.08 131c-2.514.647-4.432 2.08-5.755 4.299-1.307 2.229-1.637 4.599-.99 7.11.646 2.512 2.078 4.421 4.295 5.73 2.233 1.318 4.607 1.653 7.12 1.007L246.08 131z" fill="#FCB796"/><path d="M251.328 150.207c1.448-11.08.818-22.2-1.89-33.359-.056.362-.562 1.384-1.518 3.069-1.993 3.438-3.173 5.503-3.542 6.192l6.95 24.098z" fill="#2C3E50"/><path d="M132.415 26.822c-1.123 6.266-.871 9.973-.546 10.027 9.666 2.443 17.912 4.052 23.994 3.565 5.159-.434 7.9-1.736 8.226-3.906.272-1.628-2.28-3.284-7.657-4.966-6.354-2.009-14.026-4.448-24.017-4.72z" fill="url(#f)" transform="rotate(-23.941 391.008 -264.719)"/><path d="M123.221 16.785c-5.528-5.715-14.66-8.333-27.396-7.854-12.16.432-21.388 5.858-27.684 16.279-6.343 10.517-8.592 23.1-5.034 37.603 4.517-3.41 16.884-6.362 35.388-8.714 17.062-2.16 27.9-2.784 32.515-1.871l.504.144c.912-17.049-1.852-28.91-8.293-35.587z" fill="url(#f)" transform="rotate(-14.437 455.725 -488.212)"/><path d="M452.026 196.279c4.463-6.388 6.701-10.359 6.714-11.914.033-.606-.24-.95-.819-1.03-.505-.101-.926.034-1.262.404-.277.155-1.478 1.437-3.606 3.846-2.437 2.733-4.392 5.116-5.867 7.149-1.602 2.147-2.888 3.631-3.857 4.452-.923.848-2.179 1.568-3.768 2.16 1.736-5.007 2.691-8.65 2.865-10.924.228-2.37-.439-2.844-2-1.424-.795.734-1.822 2.585-3.08 5.553-1.413 3.13-2.42 5.055-3.018 5.775-1.091 1.252-2.794 4.342-5.109 9.269-1.898 3.978-1.99 7.206-.28 9.683 1.504 2.296 3.47 3.013 5.902 2.151 5.825-1.985 9.323-3.237 10.495-3.755 2.344-1.036 4.084-2.386 5.222-4.048 2.033-2.901 3.321-6.415 3.865-10.541.605-4.342-.194-6.61-2.397-6.806z" fill="#FCB796"/></g><path d="M403.656 258.5h226M403.656 284.5h226M403.656 310.5h226M403.656 362.5h226M403.656 336.5h226" stroke="#ECEDF4"/><path stroke="#2A5FFF" stroke-width="4" stroke-linecap="round" d="M404 288.083L465.042 354 517 321l36 14.198 37.325-47.115L629.993 270"/></g></svg>